<mxfile host="65bd71144e">
    <diagram id="2n8W-470WJ_kt_i8WAKH" name="Page-1">
        <mxGraphModel dx="825" dy="525" grid="1" gridSize="10" guides="1" tooltips="1" connect="1" arrows="1" fold="1" page="1" pageScale="1" pageWidth="850" pageHeight="1100" math="0" shadow="0">
            <root>
                <mxCell id="0"/>
                <mxCell id="1" parent="0"/>
                <mxCell id="49" value="possui" style="rhombus;whiteSpace=wrap;html=1;" vertex="1" parent="1">
                    <mxGeometry x="582.5" y="785" width="105" height="80" as="geometry"/>
                </mxCell>
                <mxCell id="14" value="PACIENTE" style="rounded=0;whiteSpace=wrap;html=1;" vertex="1" parent="1">
                    <mxGeometry x="580" y="670" width="110" height="40" as="geometry"/>
                </mxCell>
                <mxCell id="15" value="FUNCIONARIO" style="rounded=0;whiteSpace=wrap;html=1;" vertex="1" parent="1">
                    <mxGeometry x="1210" y="90" width="110" height="40" as="geometry"/>
                </mxCell>
                <mxCell id="16" value="MEDICO" style="rounded=0;whiteSpace=wrap;html=1;" vertex="1" parent="1">
                    <mxGeometry x="1020" y="315" width="110" height="40" as="geometry"/>
                </mxCell>
                <mxCell id="18" value="ENFERMEIRO" style="rounded=0;whiteSpace=wrap;html=1;" vertex="1" parent="1">
                    <mxGeometry x="1400" y="315" width="110" height="40" as="geometry"/>
                </mxCell>
                <mxCell id="19" value="PESSOAL_ADM" style="rounded=0;whiteSpace=wrap;html=1;" vertex="1" parent="1">
                    <mxGeometry x="1210" y="315" width="110" height="40" as="geometry"/>
                </mxCell>
                <mxCell id="20" value="CONSULTA" style="rounded=0;whiteSpace=wrap;html=1;" vertex="1" parent="1">
                    <mxGeometry x="1020" y="672.5" width="110" height="40" as="geometry"/>
                </mxCell>
                <mxCell id="21" value="MEDICAMENTO" style="rounded=0;whiteSpace=wrap;html=1;" vertex="1" parent="1">
                    <mxGeometry x="250" y="395" width="110" height="40" as="geometry"/>
                </mxCell>
                <mxCell id="22" value="PRONTUARIO" style="shape=ext;double=1;rounded=0;whiteSpace=wrap;html=1;strokeColor=default;fontFamily=Helvetica;fontSize=12;fontColor=default;fillColor=default;" vertex="1" parent="1">
                    <mxGeometry x="580" y="937.5" width="110" height="45" as="geometry"/>
                </mxCell>
                <mxCell id="23" value="EXAME" style="shape=ext;double=1;rounded=0;whiteSpace=wrap;html=1;strokeColor=default;fontFamily=Helvetica;fontSize=12;fontColor=default;fillColor=default;" vertex="1" parent="1">
                    <mxGeometry x="580" y="312.5" width="110" height="45" as="geometry"/>
                </mxCell>
                <mxCell id="24" value="AGENDAMENTO" style="rounded=0;whiteSpace=wrap;html=1;" vertex="1" parent="1">
                    <mxGeometry x="370" y="50" width="110" height="40" as="geometry"/>
                </mxCell>
                <mxCell id="25" value="PAGAMENTO" style="shape=ext;double=1;rounded=0;whiteSpace=wrap;html=1;strokeColor=default;fontFamily=Helvetica;fontSize=12;fontColor=default;fillColor=default;" vertex="1" parent="1">
                    <mxGeometry x="1370" y="937.5" width="110" height="45" as="geometry"/>
                </mxCell>
                <mxCell id="26" value="PLANO_DE_SAUDE" style="rounded=0;whiteSpace=wrap;html=1;" vertex="1" parent="1">
                    <mxGeometry x="970" y="940" width="120" height="40" as="geometry"/>
                </mxCell>
                <mxCell id="27" value="possui" style="rhombus;whiteSpace=wrap;html=1;" vertex="1" parent="1">
                    <mxGeometry x="780" y="790" width="100" height="70" as="geometry"/>
                </mxCell>
                <mxCell id="28" value="" style="endArrow=none;html=1;" edge="1" parent="1" source="27" target="14">
                    <mxGeometry width="50" height="50" relative="1" as="geometry">
                        <mxPoint x="650" y="910" as="sourcePoint"/>
                        <mxPoint x="700" y="860" as="targetPoint"/>
                    </mxGeometry>
                </mxCell>
                <mxCell id="46" value="1,1" style="edgeLabel;html=1;align=center;verticalAlign=middle;resizable=0;points=[];" vertex="1" connectable="0" parent="28">
                    <mxGeometry x="0.6426" y="2" relative="1" as="geometry">
                        <mxPoint x="22" y="-1" as="offset"/>
                    </mxGeometry>
                </mxCell>
                <mxCell id="29" value="" style="endArrow=none;html=1;" edge="1" parent="1" source="26" target="27">
                    <mxGeometry width="50" height="50" relative="1" as="geometry">
                        <mxPoint x="814.8618784530386" y="817.5966850828729" as="sourcePoint"/>
                        <mxPoint x="673.8888888888887" y="720" as="targetPoint"/>
                    </mxGeometry>
                </mxCell>
                <mxCell id="45" value="0,N" style="edgeLabel;html=1;align=center;verticalAlign=middle;resizable=0;points=[];" vertex="1" connectable="0" parent="29">
                    <mxGeometry x="-0.7239" y="4" relative="1" as="geometry">
                        <mxPoint x="-28" y="-5" as="offset"/>
                    </mxGeometry>
                </mxCell>
                <mxCell id="30" value="d" style="ellipse;whiteSpace=wrap;html=1;aspect=fixed;" vertex="1" parent="1">
                    <mxGeometry x="1240" y="185" width="50" height="50" as="geometry"/>
                </mxCell>
                <mxCell id="31" value="" style="endArrow=none;html=1;" edge="1" parent="1" source="30" target="15">
                    <mxGeometry width="50" height="50" relative="1" as="geometry">
                        <mxPoint x="1150" y="215" as="sourcePoint"/>
                        <mxPoint x="1200" y="165" as="targetPoint"/>
                    </mxGeometry>
                </mxCell>
                <mxCell id="32" value="" style="endArrow=none;html=1;" edge="1" parent="1" source="19" target="30">
                    <mxGeometry width="50" height="50" relative="1" as="geometry">
                        <mxPoint x="1275" y="195" as="sourcePoint"/>
                        <mxPoint x="1275" y="140" as="targetPoint"/>
                    </mxGeometry>
                </mxCell>
                <mxCell id="33" value="" style="endArrow=none;html=1;" edge="1" parent="1" source="18" target="30">
                    <mxGeometry width="50" height="50" relative="1" as="geometry">
                        <mxPoint x="1434.6" y="325" as="sourcePoint"/>
                        <mxPoint x="1295.8854270560946" y="233.7404125369044" as="targetPoint"/>
                    </mxGeometry>
                </mxCell>
                <mxCell id="34" value="" style="endArrow=none;html=1;" edge="1" parent="1" source="16" target="30">
                    <mxGeometry width="50" height="50" relative="1" as="geometry">
                        <mxPoint x="1444.6" y="335" as="sourcePoint"/>
                        <mxPoint x="1305.8854270560946" y="243.7404125369044" as="targetPoint"/>
                    </mxGeometry>
                </mxCell>
                <mxCell id="35" value="realiza" style="rhombus;whiteSpace=wrap;html=1;" vertex="1" parent="1">
                    <mxGeometry x="1025" y="480" width="100" height="70" as="geometry"/>
                </mxCell>
                <mxCell id="36" value="" style="endArrow=none;html=1;" edge="1" parent="1" source="16" target="35">
                    <mxGeometry width="50" height="50" relative="1" as="geometry">
                        <mxPoint x="1115.4" y="325" as="sourcePoint"/>
                        <mxPoint x="1254.1145729438767" y="233.7404125369228" as="targetPoint"/>
                    </mxGeometry>
                </mxCell>
                <mxCell id="42" value="1,1" style="edgeLabel;html=1;align=center;verticalAlign=middle;resizable=0;points=[];" vertex="1" connectable="0" parent="36">
                    <mxGeometry x="-0.776" y="-1" relative="1" as="geometry">
                        <mxPoint x="16" as="offset"/>
                    </mxGeometry>
                </mxCell>
                <mxCell id="37" value="" style="endArrow=none;html=1;" edge="1" parent="1" source="20" target="35">
                    <mxGeometry width="50" height="50" relative="1" as="geometry">
                        <mxPoint x="1085.5555555555557" y="365" as="sourcePoint"/>
                        <mxPoint x="1089.0463215258856" y="490.66757493188015" as="targetPoint"/>
                    </mxGeometry>
                </mxCell>
                <mxCell id="44" value="0,N" style="edgeLabel;html=1;align=center;verticalAlign=middle;resizable=0;points=[];" vertex="1" connectable="0" parent="37">
                    <mxGeometry x="-0.7306" y="4" relative="1" as="geometry">
                        <mxPoint x="19" y="5" as="offset"/>
                    </mxGeometry>
                </mxCell>
                <mxCell id="38" value="Ã©_consultado" style="rhombus;whiteSpace=wrap;html=1;" vertex="1" parent="1">
                    <mxGeometry x="810" y="655" width="100" height="70" as="geometry"/>
                </mxCell>
                <mxCell id="39" value="" style="endArrow=none;html=1;" edge="1" parent="1" source="38" target="14">
                    <mxGeometry width="50" height="50" relative="1" as="geometry">
                        <mxPoint x="814.8618784530386" y="817.5966850828731" as="sourcePoint"/>
                        <mxPoint x="673.8888888888887" y="720" as="targetPoint"/>
                    </mxGeometry>
                </mxCell>
                <mxCell id="41" value="1,1" style="edgeLabel;html=1;align=center;verticalAlign=middle;resizable=0;points=[];" vertex="1" connectable="0" parent="39">
                    <mxGeometry x="0.5258" relative="1" as="geometry">
                        <mxPoint x="-21" y="-11" as="offset"/>
                    </mxGeometry>
                </mxCell>
                <mxCell id="40" value="" style="endArrow=none;html=1;" edge="1" parent="1" source="38" target="20">
                    <mxGeometry width="50" height="50" relative="1" as="geometry">
                        <mxPoint x="830.7485029940121" y="701.9760479041915" as="sourcePoint"/>
                        <mxPoint x="700" y="700.5851063829787" as="targetPoint"/>
                    </mxGeometry>
                </mxCell>
                <mxCell id="43" value="0,N" style="edgeLabel;html=1;align=center;verticalAlign=middle;resizable=0;points=[];" vertex="1" connectable="0" parent="40">
                    <mxGeometry x="0.48" y="2" relative="1" as="geometry">
                        <mxPoint x="6" y="-10" as="offset"/>
                    </mxGeometry>
                </mxCell>
                <mxCell id="47" value="PESOAL_&lt;br&gt;AUTORIZADO" style="rounded=0;whiteSpace=wrap;html=1;" vertex="1" parent="1">
                    <mxGeometry x="170" y="937.5" width="110" height="40" as="geometry"/>
                </mxCell>
                <mxCell id="48" value="possui" style="rhombus;whiteSpace=wrap;html=1;" vertex="1" parent="1">
                    <mxGeometry x="587.5" y="790" width="95" height="70" as="geometry"/>
                </mxCell>
                <mxCell id="50" value="" style="endArrow=none;html=1;" edge="1" parent="1" source="48" target="14">
                    <mxGeometry width="50" height="50" relative="1" as="geometry">
                        <mxPoint x="814.8618784530386" y="817.5966850828731" as="sourcePoint"/>
                        <mxPoint x="673.8888888888887" y="720" as="targetPoint"/>
                    </mxGeometry>
                </mxCell>
                <mxCell id="51" value="1,1" style="edgeLabel;html=1;align=center;verticalAlign=middle;resizable=0;points=[];" vertex="1" connectable="0" parent="50">
                    <mxGeometry x="0.6426" y="2" relative="1" as="geometry">
                        <mxPoint x="17" y="6" as="offset"/>
                    </mxGeometry>
                </mxCell>
                <mxCell id="52" value="" style="shape=link;html=1;" edge="1" parent="1" source="22" target="48">
                    <mxGeometry width="100" relative="1" as="geometry">
                        <mxPoint x="410" y="940" as="sourcePoint"/>
                        <mxPoint x="510" y="940" as="targetPoint"/>
                    </mxGeometry>
                </mxCell>
                <mxCell id="54" value="1,1" style="edgeLabel;html=1;align=center;verticalAlign=middle;resizable=0;points=[];" vertex="1" connectable="0" parent="52">
                    <mxGeometry x="-0.3935" y="-2" relative="1" as="geometry">
                        <mxPoint x="13" y="12" as="offset"/>
                    </mxGeometry>
                </mxCell>
                <mxCell id="55" value="visualiza" style="rhombus;whiteSpace=wrap;html=1;" vertex="1" parent="1">
                    <mxGeometry x="350" y="881.25" width="100" height="70" as="geometry"/>
                </mxCell>
                <mxCell id="56" value="atualiza" style="rhombus;whiteSpace=wrap;html=1;" vertex="1" parent="1">
                    <mxGeometry x="350" y="968.75" width="100" height="70" as="geometry"/>
                </mxCell>
                <mxCell id="57" value="" style="endArrow=none;html=1;" edge="1" parent="1" source="55" target="47">
                    <mxGeometry width="50" height="50" relative="1" as="geometry">
                        <mxPoint x="230" y="1140" as="sourcePoint"/>
                        <mxPoint x="280" y="1090" as="targetPoint"/>
                    </mxGeometry>
                </mxCell>
                <mxCell id="65" value="0,M" style="edgeLabel;html=1;align=center;verticalAlign=middle;resizable=0;points=[];" vertex="1" connectable="0" parent="57">
                    <mxGeometry x="0.6543" y="-1" relative="1" as="geometry">
                        <mxPoint x="-4" y="-15" as="offset"/>
                    </mxGeometry>
                </mxCell>
                <mxCell id="58" value="" style="endArrow=none;html=1;" edge="1" parent="1" source="56" target="47">
                    <mxGeometry width="50" height="50" relative="1" as="geometry">
                        <mxPoint x="372.59541984732823" y="935.0667938931297" as="sourcePoint"/>
                        <mxPoint x="290" y="954.5357142857142" as="targetPoint"/>
                    </mxGeometry>
                </mxCell>
                <mxCell id="66" value="0,M" style="edgeLabel;html=1;align=center;verticalAlign=middle;resizable=0;points=[];" vertex="1" connectable="0" parent="58">
                    <mxGeometry x="0.7322" y="-3" relative="1" as="geometry">
                        <mxPoint y="18" as="offset"/>
                    </mxGeometry>
                </mxCell>
                <mxCell id="60" value="" style="endArrow=none;html=1;" edge="1" parent="1" source="22" target="55">
                    <mxGeometry width="50" height="50" relative="1" as="geometry">
                        <mxPoint x="382.59541984732823" y="945.0667938931297" as="sourcePoint"/>
                        <mxPoint x="300" y="964.5357142857142" as="targetPoint"/>
                    </mxGeometry>
                </mxCell>
                <mxCell id="62" value="0,N" style="edgeLabel;html=1;align=center;verticalAlign=middle;resizable=0;points=[];" vertex="1" connectable="0" parent="60">
                    <mxGeometry x="-0.5399" y="-2" relative="1" as="geometry">
                        <mxPoint x="12" y="-4" as="offset"/>
                    </mxGeometry>
                </mxCell>
                <mxCell id="61" value="" style="endArrow=none;html=1;" edge="1" parent="1" source="22" target="56">
                    <mxGeometry width="50" height="50" relative="1" as="geometry">
                        <mxPoint x="392.59541984732823" y="955.0667938931297" as="sourcePoint"/>
                        <mxPoint x="310" y="974.5357142857142" as="targetPoint"/>
                    </mxGeometry>
                </mxCell>
                <mxCell id="63" value="0,N" style="edgeLabel;html=1;align=center;verticalAlign=middle;resizable=0;points=[];" vertex="1" connectable="0" parent="61">
                    <mxGeometry x="-0.8064" y="3" relative="1" as="geometry">
                        <mxPoint y="14" as="offset"/>
                    </mxGeometry>
                </mxCell>
                <mxCell id="67" value="possui" style="rhombus;whiteSpace=wrap;html=1;" vertex="1" parent="1">
                    <mxGeometry x="1180" y="920" width="105" height="80" as="geometry"/>
                </mxCell>
                <mxCell id="68" value="estado" style="rhombus;whiteSpace=wrap;html=1;" vertex="1" parent="1">
                    <mxGeometry x="1185" y="925" width="95" height="70" as="geometry"/>
                </mxCell>
                <mxCell id="70" value="" style="endArrow=none;html=1;" edge="1" parent="1" source="68" target="26">
                    <mxGeometry width="50" height="50" relative="1" as="geometry">
                        <mxPoint x="980" y="1030" as="sourcePoint"/>
                        <mxPoint x="1030" y="980" as="targetPoint"/>
                    </mxGeometry>
                </mxCell>
                <mxCell id="72" value="1,1" style="edgeLabel;html=1;align=center;verticalAlign=middle;resizable=0;points=[];" vertex="1" connectable="0" parent="70">
                    <mxGeometry x="0.7825" y="1" relative="1" as="geometry">
                        <mxPoint y="-11" as="offset"/>
                    </mxGeometry>
                </mxCell>
                <mxCell id="71" value="" style="shape=link;html=1;" edge="1" parent="1" source="68" target="25">
                    <mxGeometry width="100" relative="1" as="geometry">
                        <mxPoint x="1310" y="1060" as="sourcePoint"/>
                        <mxPoint x="1410" y="1060" as="targetPoint"/>
                    </mxGeometry>
                </mxCell>
                <mxCell id="73" value="1,1" style="edgeLabel;html=1;align=center;verticalAlign=middle;resizable=0;points=[];" vertex="1" connectable="0" parent="71">
                    <mxGeometry x="0.6741" y="3" relative="1" as="geometry">
                        <mxPoint x="5" y="-7" as="offset"/>
                    </mxGeometry>
                </mxCell>
                <mxCell id="74" value="DATA_DISPONIVEL" style="shape=ext;double=1;rounded=0;whiteSpace=wrap;html=1;strokeColor=default;fontFamily=Helvetica;fontSize=12;fontColor=default;fillColor=default;" vertex="1" parent="1">
                    <mxGeometry x="710" y="30" width="115" height="45" as="geometry"/>
                </mxCell>
                <mxCell id="75" value="possui" style="rhombus;whiteSpace=wrap;html=1;" vertex="1" parent="1">
                    <mxGeometry x="865" y="150" width="105" height="80" as="geometry"/>
                </mxCell>
                <mxCell id="76" value="possui" style="rhombus;whiteSpace=wrap;html=1;" vertex="1" parent="1">
                    <mxGeometry x="870" y="155" width="95" height="70" as="geometry"/>
                </mxCell>
                <mxCell id="77" value="" style="endArrow=none;html=1;" edge="1" parent="1" source="16" target="76">
                    <mxGeometry width="50" height="50" relative="1" as="geometry">
                        <mxPoint x="1115.4" y="325" as="sourcePoint"/>
                        <mxPoint x="1254.1145729438767" y="233.7404125369235" as="targetPoint"/>
                    </mxGeometry>
                </mxCell>
                <mxCell id="80" value="1,1" style="edgeLabel;html=1;align=center;verticalAlign=middle;resizable=0;points=[];" vertex="1" connectable="0" parent="77">
                    <mxGeometry x="-0.5433" relative="1" as="geometry">
                        <mxPoint x="-7" y="9" as="offset"/>
                    </mxGeometry>
                </mxCell>
                <mxCell id="78" value="" style="shape=link;html=1;" edge="1" parent="1" source="76" target="74">
                    <mxGeometry width="100" relative="1" as="geometry">
                        <mxPoint x="610" y="250" as="sourcePoint"/>
                        <mxPoint x="710" y="250" as="targetPoint"/>
                    </mxGeometry>
                </mxCell>
                <mxCell id="81" value="0,N" style="edgeLabel;html=1;align=center;verticalAlign=middle;resizable=0;points=[];" vertex="1" connectable="0" parent="78">
                    <mxGeometry x="0.8129" y="4" relative="1" as="geometry">
                        <mxPoint x="-9" y="3" as="offset"/>
                    </mxGeometry>
                </mxCell>
                <mxCell id="84" value="possui" style="rhombus;whiteSpace=wrap;html=1;" vertex="1" parent="1">
                    <mxGeometry x="807.5" y="295" width="105" height="80" as="geometry"/>
                </mxCell>
                <mxCell id="85" value="requesita" style="rhombus;whiteSpace=wrap;html=1;" vertex="1" parent="1">
                    <mxGeometry x="812.5" y="300" width="95" height="70" as="geometry"/>
                </mxCell>
                <mxCell id="86" value="" style="shape=link;html=1;" edge="1" parent="1" source="85" target="23">
                    <mxGeometry width="100" relative="1" as="geometry">
                        <mxPoint x="780" y="310" as="sourcePoint"/>
                        <mxPoint x="760" y="370" as="targetPoint"/>
                    </mxGeometry>
                </mxCell>
                <mxCell id="87" value="0,N" style="edgeLabel;html=1;align=center;verticalAlign=middle;resizable=0;points=[];" vertex="1" connectable="0" parent="86">
                    <mxGeometry x="-0.3935" y="-2" relative="1" as="geometry">
                        <mxPoint x="-55" y="-13" as="offset"/>
                    </mxGeometry>
                </mxCell>
                <mxCell id="88" value="" style="endArrow=none;html=1;" edge="1" parent="1" source="90" target="14">
                    <mxGeometry width="50" height="50" relative="1" as="geometry">
                        <mxPoint x="650" y="570" as="sourcePoint"/>
                        <mxPoint x="700" y="700.5851063829787" as="targetPoint"/>
                    </mxGeometry>
                </mxCell>
                <mxCell id="89" value="1,1" style="edgeLabel;html=1;align=center;verticalAlign=middle;resizable=0;points=[];" vertex="1" connectable="0" parent="88">
                    <mxGeometry x="0.5258" relative="1" as="geometry">
                        <mxPoint x="15" y="-14" as="offset"/>
                    </mxGeometry>
                </mxCell>
                <mxCell id="90" value="realiza" style="rhombus;whiteSpace=wrap;html=1;" vertex="1" parent="1">
                    <mxGeometry x="585" y="470" width="100" height="70" as="geometry"/>
                </mxCell>
                <mxCell id="91" value="" style="endArrow=none;html=1;" edge="1" parent="1" source="90" target="23">
                    <mxGeometry width="50" height="50" relative="1" as="geometry">
                        <mxPoint x="800" y="300" as="sourcePoint"/>
                        <mxPoint x="1030" y="702.5" as="targetPoint"/>
                    </mxGeometry>
                </mxCell>
                <mxCell id="92" value="0,N" style="edgeLabel;html=1;align=center;verticalAlign=middle;resizable=0;points=[];" vertex="1" connectable="0" parent="91">
                    <mxGeometry x="0.48" y="2" relative="1" as="geometry">
                        <mxPoint x="17" y="-10" as="offset"/>
                    </mxGeometry>
                </mxCell>
                <mxCell id="93" value="" style="endArrow=none;html=1;" edge="1" parent="1" source="16" target="85">
                    <mxGeometry width="50" height="50" relative="1" as="geometry">
                        <mxPoint x="1085" y="365" as="sourcePoint"/>
                        <mxPoint x="920" y="300" as="targetPoint"/>
                    </mxGeometry>
                </mxCell>
                <mxCell id="94" value="1,1" style="edgeLabel;html=1;align=center;verticalAlign=middle;resizable=0;points=[];" vertex="1" connectable="0" parent="93">
                    <mxGeometry x="-0.776" y="-1" relative="1" as="geometry">
                        <mxPoint x="-7" y="-14" as="offset"/>
                    </mxGeometry>
                </mxCell>
                <mxCell id="95" value="&lt;u&gt;Id_paciente&lt;/u&gt;" style="ellipse;whiteSpace=wrap;html=1;rotation=0;" vertex="1" parent="1">
                    <mxGeometry x="670" y="520" width="80" height="40" as="geometry"/>
                </mxCell>
                <mxCell id="96" value="Historico_&lt;br&gt;consultas" style="ellipse;shape=doubleEllipse;whiteSpace=wrap;html=1;" vertex="1" parent="1">
                    <mxGeometry x="422.5" y="665" width="95" height="50" as="geometry"/>
                </mxCell>
                <mxCell id="97" value="Nome" style="ellipse;whiteSpace=wrap;html=1;rotation=0;" vertex="1" parent="1">
                    <mxGeometry x="760" y="530" width="80" height="40" as="geometry"/>
                </mxCell>
                <mxCell id="99" value="EndereÃ§o" style="ellipse;whiteSpace=wrap;html=1;rotation=0;" vertex="1" parent="1">
                    <mxGeometry x="800" y="590" width="80" height="40" as="geometry"/>
                </mxCell>
                <mxCell id="100" value="Idade" style="ellipse;whiteSpace=wrap;html=1;rotation=0;" vertex="1" parent="1">
                    <mxGeometry x="500" y="530" width="80" height="40" as="geometry"/>
                </mxCell>
                <mxCell id="101" value="Historico_&lt;br&gt;tratamento" style="ellipse;shape=doubleEllipse;whiteSpace=wrap;html=1;" vertex="1" parent="1">
                    <mxGeometry x="465" y="740" width="95" height="50" as="geometry"/>
                </mxCell>
                <mxCell id="102" value="Telefone" style="ellipse;shape=doubleEllipse;whiteSpace=wrap;html=1;" vertex="1" parent="1">
                    <mxGeometry x="430" y="580" width="95" height="50" as="geometry"/>
                </mxCell>
                <mxCell id="103" value="" style="endArrow=none;html=1;" edge="1" parent="1" source="100" target="14">
                    <mxGeometry width="50" height="50" relative="1" as="geometry">
                        <mxPoint x="550" y="670" as="sourcePoint"/>
                        <mxPoint x="600" y="620" as="targetPoint"/>
                    </mxGeometry>
                </mxCell>
                <mxCell id="104" value="" style="endArrow=none;html=1;" edge="1" parent="1" source="102" target="14">
                    <mxGeometry width="50" height="50" relative="1" as="geometry">
                        <mxPoint x="544.3019297875774" y="568.6778933792987" as="sourcePoint"/>
                        <mxPoint x="629.666666666667" y="680" as="targetPoint"/>
                    </mxGeometry>
                </mxCell>
                <mxCell id="105" value="" style="endArrow=none;html=1;" edge="1" parent="1" source="96" target="14">
                    <mxGeometry width="50" height="50" relative="1" as="geometry">
                        <mxPoint x="520.7472357828342" y="632.8549969944847" as="sourcePoint"/>
                        <mxPoint x="607.9411764705885" y="680" as="targetPoint"/>
                    </mxGeometry>
                </mxCell>
                <mxCell id="106" value="" style="endArrow=none;html=1;" edge="1" parent="1" source="101" target="14">
                    <mxGeometry width="50" height="50" relative="1" as="geometry">
                        <mxPoint x="530.7472357828342" y="642.8549969944847" as="sourcePoint"/>
                        <mxPoint x="617.9411764705885" y="690" as="targetPoint"/>
                    </mxGeometry>
                </mxCell>
                <mxCell id="107" value="" style="endArrow=none;html=1;" edge="1" parent="1" source="14" target="95">
                    <mxGeometry width="50" height="50" relative="1" as="geometry">
                        <mxPoint x="540.7472357828342" y="652.8549969944847" as="sourcePoint"/>
                        <mxPoint x="627.9411764705885" y="700" as="targetPoint"/>
                    </mxGeometry>
                </mxCell>
                <mxCell id="108" value="" style="endArrow=none;html=1;" edge="1" parent="1" source="97" target="14">
                    <mxGeometry width="50" height="50" relative="1" as="geometry">
                        <mxPoint x="550.7472357828342" y="662.8549969944847" as="sourcePoint"/>
                        <mxPoint x="637.9411764705885" y="710" as="targetPoint"/>
                    </mxGeometry>
                </mxCell>
                <mxCell id="109" value="" style="endArrow=none;html=1;" edge="1" parent="1" source="14" target="99">
                    <mxGeometry width="50" height="50" relative="1" as="geometry">
                        <mxPoint x="560.7472357828342" y="672.8549969944847" as="sourcePoint"/>
                        <mxPoint x="647.9411764705885" y="720" as="targetPoint"/>
                    </mxGeometry>
                </mxCell>
                <mxCell id="110" value="EndereÃ§o" style="ellipse;whiteSpace=wrap;html=1;rotation=0;" vertex="1" parent="1">
                    <mxGeometry x="1235" y="20" width="80" height="40" as="geometry"/>
                </mxCell>
                <mxCell id="111" value="Telefone" style="ellipse;shape=doubleEllipse;whiteSpace=wrap;html=1;" vertex="1" parent="1">
                    <mxGeometry x="1082.5" y="160" width="95" height="50" as="geometry"/>
                </mxCell>
                <mxCell id="112" value="&lt;u&gt;Id_funcionario&lt;/u&gt;" style="ellipse;whiteSpace=wrap;html=1;rotation=0;" vertex="1" parent="1">
                    <mxGeometry x="1082.5" y="30" width="80" height="40" as="geometry"/>
                </mxCell>
                <mxCell id="113" value="Idade" style="ellipse;whiteSpace=wrap;html=1;rotation=0;" vertex="1" parent="1">
                    <mxGeometry x="1340" y="30" width="80" height="40" as="geometry"/>
                </mxCell>
                <mxCell id="114" value="Nome" style="ellipse;whiteSpace=wrap;html=1;rotation=0;" vertex="1" parent="1">
                    <mxGeometry x="1380" y="100" width="80" height="40" as="geometry"/>
                </mxCell>
                <mxCell id="115" value="Data_admissÃ£o" style="ellipse;whiteSpace=wrap;html=1;rotation=0;" vertex="1" parent="1">
                    <mxGeometry x="1360" y="170" width="90" height="40" as="geometry"/>
                </mxCell>
                <mxCell id="116" value="Salario" style="ellipse;whiteSpace=wrap;html=1;rotation=0;" vertex="1" parent="1">
                    <mxGeometry x="1020" y="85" width="80" height="40" as="geometry"/>
                </mxCell>
                <mxCell id="118" value="" style="endArrow=none;html=1;" edge="1" parent="1" source="15" target="110">
                    <mxGeometry width="50" height="50" relative="1" as="geometry">
                        <mxPoint x="1180" y="90" as="sourcePoint"/>
                        <mxPoint x="1230" y="40" as="targetPoint"/>
                    </mxGeometry>
                </mxCell>
                <mxCell id="119" value="" style="endArrow=none;html=1;" edge="1" parent="1" source="15" target="112">
                    <mxGeometry width="50" height="50" relative="1" as="geometry">
                        <mxPoint x="1271.9243794583422" y="100" as="sourcePoint"/>
                        <mxPoint x="1258.0749855413605" y="9.940815328822396" as="targetPoint"/>
                    </mxGeometry>
                </mxCell>
                <mxCell id="120" value="" style="endArrow=none;html=1;" edge="1" parent="1" source="15" target="116">
                    <mxGeometry width="50" height="50" relative="1" as="geometry">
                        <mxPoint x="1281.9243794583422" y="110" as="sourcePoint"/>
                        <mxPoint x="1268.0749855413605" y="19.940815328822396" as="targetPoint"/>
                    </mxGeometry>
                </mxCell>
                <mxCell id="121" value="" style="endArrow=none;html=1;" edge="1" parent="1" source="15" target="111">
                    <mxGeometry width="50" height="50" relative="1" as="geometry">
                        <mxPoint x="1291.9243794583422" y="120" as="sourcePoint"/>
                        <mxPoint x="1278.0749855413605" y="29.940815328822396" as="targetPoint"/>
                    </mxGeometry>
                </mxCell>
                <mxCell id="122" value="" style="endArrow=none;html=1;" edge="1" parent="1" source="15" target="113">
                    <mxGeometry width="50" height="50" relative="1" as="geometry">
                        <mxPoint x="1301.9243794583422" y="130" as="sourcePoint"/>
                        <mxPoint x="1288.0749855413605" y="39.940815328822396" as="targetPoint"/>
                    </mxGeometry>
                </mxCell>
                <mxCell id="123" value="" style="endArrow=none;html=1;" edge="1" parent="1" source="15" target="114">
                    <mxGeometry width="50" height="50" relative="1" as="geometry">
                        <mxPoint x="1311.9243794583422" y="140" as="sourcePoint"/>
                        <mxPoint x="1298.0749855413605" y="49.940815328822396" as="targetPoint"/>
                    </mxGeometry>
                </mxCell>
                <mxCell id="124" value="" style="endArrow=none;html=1;" edge="1" parent="1" source="15" target="115">
                    <mxGeometry width="50" height="50" relative="1" as="geometry">
                        <mxPoint x="1321.9243794583422" y="150" as="sourcePoint"/>
                        <mxPoint x="1308.0749855413605" y="59.940815328822396" as="targetPoint"/>
                    </mxGeometry>
                </mxCell>
                <mxCell id="125" value="&lt;u&gt;CRM&lt;/u&gt;" style="ellipse;whiteSpace=wrap;html=1;rotation=0;" vertex="1" parent="1">
                    <mxGeometry x="1040" y="235" width="80" height="40" as="geometry"/>
                </mxCell>
                <mxCell id="127" value="Especializade" style="ellipse;shape=doubleEllipse;whiteSpace=wrap;html=1;" vertex="1" parent="1">
                    <mxGeometry x="1120" y="390" width="95" height="50" as="geometry"/>
                </mxCell>
                <mxCell id="128" value="" style="endArrow=none;html=1;" edge="1" parent="1" source="16" target="125">
                    <mxGeometry width="50" height="50" relative="1" as="geometry">
                        <mxPoint x="1115.4" y="325" as="sourcePoint"/>
                        <mxPoint x="1254.1145729439286" y="233.74041253688893" as="targetPoint"/>
                    </mxGeometry>
                </mxCell>
                <mxCell id="129" value="" style="endArrow=none;html=1;" edge="1" parent="1" source="16" target="127">
                    <mxGeometry width="50" height="50" relative="1" as="geometry">
                        <mxPoint x="1125.4" y="335" as="sourcePoint"/>
                        <mxPoint x="1264.1145729439286" y="243.74041253688893" as="targetPoint"/>
                    </mxGeometry>
                </mxCell>
                <mxCell id="130" value="&lt;u&gt;COREM&lt;/u&gt;" style="ellipse;whiteSpace=wrap;html=1;rotation=0;" vertex="1" parent="1">
                    <mxGeometry x="1430" y="220" width="80" height="40" as="geometry"/>
                </mxCell>
                <mxCell id="131" value="Turnos" style="ellipse;shape=doubleEllipse;whiteSpace=wrap;html=1;" vertex="1" parent="1">
                    <mxGeometry x="1335" y="390" width="95" height="50" as="geometry"/>
                </mxCell>
                <mxCell id="132" value="Dia" style="ellipse;whiteSpace=wrap;html=1;rotation=0;" vertex="1" parent="1">
                    <mxGeometry x="1250" y="460" width="80" height="40" as="geometry"/>
                </mxCell>
                <mxCell id="133" value="Horario" style="ellipse;whiteSpace=wrap;html=1;rotation=0;" vertex="1" parent="1">
                    <mxGeometry x="1350" y="490" width="80" height="40" as="geometry"/>
                </mxCell>
                <mxCell id="134" value="" style="endArrow=none;html=1;" edge="1" parent="1" source="18" target="131">
                    <mxGeometry width="50" height="50" relative="1" as="geometry">
                        <mxPoint x="1434.6" y="325" as="sourcePoint"/>
                        <mxPoint x="1295.8854270560714" y="233.74041253688915" as="targetPoint"/>
                    </mxGeometry>
                </mxCell>
                <mxCell id="135" value="" style="endArrow=none;html=1;" edge="1" parent="1" source="131" target="132">
                    <mxGeometry width="50" height="50" relative="1" as="geometry">
                        <mxPoint x="1450" y="335" as="sourcePoint"/>
                        <mxPoint x="1305.8854270560714" y="243.74041253688915" as="targetPoint"/>
                    </mxGeometry>
                </mxCell>
                <mxCell id="136" value="" style="endArrow=none;html=1;" edge="1" parent="1" source="131" target="133">
                    <mxGeometry width="50" height="50" relative="1" as="geometry">
                        <mxPoint x="1454.6" y="345" as="sourcePoint"/>
                        <mxPoint x="1315.8854270560714" y="253.74041253688915" as="targetPoint"/>
                    </mxGeometry>
                </mxCell>
                <mxCell id="137" value="" style="endArrow=none;html=1;" edge="1" parent="1" source="18" target="130">
                    <mxGeometry width="50" height="50" relative="1" as="geometry">
                        <mxPoint x="1464.6" y="355" as="sourcePoint"/>
                        <mxPoint x="1325.8854270560714" y="263.74041253688915" as="targetPoint"/>
                    </mxGeometry>
                </mxCell>
                <mxCell id="138" value="Setor" style="ellipse;shape=doubleEllipse;whiteSpace=wrap;html=1;" vertex="1" parent="1">
                    <mxGeometry x="1450" y="400" width="95" height="50" as="geometry"/>
                </mxCell>
                <mxCell id="140" value="" style="endArrow=none;html=1;" edge="1" parent="1" source="18" target="138">
                    <mxGeometry width="50" height="50" relative="1" as="geometry">
                        <mxPoint x="1446.9497515337766" y="365" as="sourcePoint"/>
                        <mxPoint x="1413.1240590646403" y="402.4794757340137" as="targetPoint"/>
                    </mxGeometry>
                </mxCell>
                <mxCell id="141" value="&lt;u&gt;Id_consulta&lt;/u&gt;" style="ellipse;whiteSpace=wrap;html=1;rotation=0;" vertex="1" parent="1">
                    <mxGeometry x="1112.5" y="570" width="80" height="40" as="geometry"/>
                </mxCell>
                <mxCell id="142" value="Data" style="ellipse;whiteSpace=wrap;html=1;rotation=0;" vertex="1" parent="1">
                    <mxGeometry x="1160" y="630" width="80" height="40" as="geometry"/>
                </mxCell>
                <mxCell id="143" value="Horarip" style="ellipse;whiteSpace=wrap;html=1;rotation=0;" vertex="1" parent="1">
                    <mxGeometry x="1180" y="690" width="80" height="40" as="geometry"/>
                </mxCell>
                <mxCell id="144" value="Sala" style="ellipse;whiteSpace=wrap;html=1;rotation=0;" vertex="1" parent="1">
                    <mxGeometry x="1105" y="740" width="80" height="40" as="geometry"/>
                </mxCell>
                <mxCell id="145" value="Diagnostico" style="ellipse;whiteSpace=wrap;html=1;rotation=0;" vertex="1" parent="1">
                    <mxGeometry x="945" y="570" width="80" height="40" as="geometry"/>
                </mxCell>
                <mxCell id="146" value="" style="endArrow=none;html=1;" edge="1" parent="1" source="20" target="145">
                    <mxGeometry width="50" height="50" relative="1" as="geometry">
                        <mxPoint x="900" y="840" as="sourcePoint"/>
                        <mxPoint x="950" y="790" as="targetPoint"/>
                    </mxGeometry>
                </mxCell>
                <mxCell id="147" value="" style="endArrow=none;html=1;" edge="1" parent="1" source="20" target="141">
                    <mxGeometry width="50" height="50" relative="1" as="geometry">
                        <mxPoint x="1067.439024390244" y="682.5" as="sourcePoint"/>
                        <mxPoint x="1011.0796024814076" y="618.3128806038258" as="targetPoint"/>
                    </mxGeometry>
                </mxCell>
                <mxCell id="148" value="" style="endArrow=none;html=1;" edge="1" parent="1" source="142" target="20">
                    <mxGeometry width="50" height="50" relative="1" as="geometry">
                        <mxPoint x="1077.439024390244" y="692.5" as="sourcePoint"/>
                        <mxPoint x="1021.0796024814076" y="628.3128806038258" as="targetPoint"/>
                    </mxGeometry>
                </mxCell>
                <mxCell id="149" value="" style="endArrow=none;html=1;" edge="1" parent="1" source="20" target="143">
                    <mxGeometry width="50" height="50" relative="1" as="geometry">
                        <mxPoint x="1087.439024390244" y="702.5" as="sourcePoint"/>
                        <mxPoint x="1031.0796024814076" y="638.3128806038258" as="targetPoint"/>
                    </mxGeometry>
                </mxCell>
                <mxCell id="150" value="" style="endArrow=none;html=1;" edge="1" parent="1" source="20" target="144">
                    <mxGeometry width="50" height="50" relative="1" as="geometry">
                        <mxPoint x="1097.439024390244" y="712.5" as="sourcePoint"/>
                        <mxPoint x="1041.0796024814076" y="648.3128806038258" as="targetPoint"/>
                    </mxGeometry>
                </mxCell>
                <mxCell id="151" value="&lt;u&gt;Id_medicamento&lt;/u&gt;" style="ellipse;whiteSpace=wrap;html=1;rotation=0;" vertex="1" parent="1">
                    <mxGeometry x="330" y="500" width="100" height="40" as="geometry"/>
                </mxCell>
                <mxCell id="152" value="Nome" style="ellipse;whiteSpace=wrap;html=1;rotation=0;" vertex="1" parent="1">
                    <mxGeometry x="410" y="450" width="80" height="40" as="geometry"/>
                </mxCell>
                <mxCell id="153" value="Fabricante" style="ellipse;whiteSpace=wrap;html=1;rotation=0;" vertex="1" parent="1">
                    <mxGeometry x="410" y="375" width="80" height="40" as="geometry"/>
                </mxCell>
                <mxCell id="154" value="Lote" style="ellipse;whiteSpace=wrap;html=1;rotation=0;" vertex="1" parent="1">
                    <mxGeometry x="230" y="500" width="80" height="40" as="geometry"/>
                </mxCell>
                <mxCell id="155" value="Validade" style="ellipse;whiteSpace=wrap;html=1;rotation=0;" vertex="1" parent="1">
                    <mxGeometry x="350" y="312.5" width="80" height="40" as="geometry"/>
                </mxCell>
                <mxCell id="156" value="Quantidade" style="ellipse;whiteSpace=wrap;html=1;rotation=0;" vertex="1" parent="1">
                    <mxGeometry x="150" y="460" width="80" height="40" as="geometry"/>
                </mxCell>
                <mxCell id="157" value="" style="endArrow=none;html=1;" edge="1" parent="1" source="21" target="155">
                    <mxGeometry width="50" height="50" relative="1" as="geometry">
                        <mxPoint x="170" y="430" as="sourcePoint"/>
                        <mxPoint x="220" y="380" as="targetPoint"/>
                    </mxGeometry>
                </mxCell>
                <mxCell id="158" value="" style="endArrow=none;html=1;" edge="1" parent="1" source="21" target="153">
                    <mxGeometry width="50" height="50" relative="1" as="geometry">
                        <mxPoint x="335" y="405" as="sourcePoint"/>
                        <mxPoint x="392.1114561800018" y="347.8885438199982" as="targetPoint"/>
                    </mxGeometry>
                </mxCell>
                <mxCell id="159" value="" style="endArrow=none;html=1;" edge="1" parent="1" source="21" target="152">
                    <mxGeometry width="50" height="50" relative="1" as="geometry">
                        <mxPoint x="345" y="415" as="sourcePoint"/>
                        <mxPoint x="402.1114561800018" y="357.8885438199982" as="targetPoint"/>
                    </mxGeometry>
                </mxCell>
                <mxCell id="160" value="" style="endArrow=none;html=1;" edge="1" parent="1" source="21" target="151">
                    <mxGeometry width="50" height="50" relative="1" as="geometry">
                        <mxPoint x="355" y="425" as="sourcePoint"/>
                        <mxPoint x="412.1114561800018" y="367.8885438199982" as="targetPoint"/>
                    </mxGeometry>
                </mxCell>
                <mxCell id="161" value="" style="endArrow=none;html=1;" edge="1" parent="1" source="21" target="154">
                    <mxGeometry width="50" height="50" relative="1" as="geometry">
                        <mxPoint x="365" y="435" as="sourcePoint"/>
                        <mxPoint x="422.1114561800018" y="377.8885438199982" as="targetPoint"/>
                    </mxGeometry>
                </mxCell>
                <mxCell id="162" value="" style="endArrow=none;html=1;" edge="1" parent="1" source="21" target="156">
                    <mxGeometry width="50" height="50" relative="1" as="geometry">
                        <mxPoint x="375" y="445" as="sourcePoint"/>
                        <mxPoint x="432.1114561800018" y="387.8885438199982" as="targetPoint"/>
                    </mxGeometry>
                </mxCell>
                <mxCell id="163" value="Historico_&lt;br&gt;exames" style="ellipse;shape=doubleEllipse;whiteSpace=wrap;html=1;" vertex="1" parent="1">
                    <mxGeometry x="670" y="1018.75" width="95" height="50" as="geometry"/>
                </mxCell>
                <mxCell id="164" value="Diagnosticos" style="ellipse;shape=doubleEllipse;whiteSpace=wrap;html=1;" vertex="1" parent="1">
                    <mxGeometry x="550" y="1030" width="95" height="50" as="geometry"/>
                </mxCell>
                <mxCell id="165" value="Tratamentos" style="ellipse;shape=doubleEllipse;whiteSpace=wrap;html=1;" vertex="1" parent="1">
                    <mxGeometry x="740" y="968.75" width="95" height="50" as="geometry"/>
                </mxCell>
                <mxCell id="166" value="Alergias" style="ellipse;shape=doubleEllipse;whiteSpace=wrap;html=1;" vertex="1" parent="1">
                    <mxGeometry x="720" y="890" width="95" height="50" as="geometry"/>
                </mxCell>
                <mxCell id="167" value="" style="endArrow=none;html=1;" edge="1" parent="1" source="164" target="22">
                    <mxGeometry width="50" height="50" relative="1" as="geometry">
                        <mxPoint x="550" y="930" as="sourcePoint"/>
                        <mxPoint x="600" y="880" as="targetPoint"/>
                    </mxGeometry>
                </mxCell>
                <mxCell id="168" value="" style="endArrow=none;html=1;" edge="1" parent="1" source="163" target="22">
                    <mxGeometry width="50" height="50" relative="1" as="geometry">
                        <mxPoint x="617.0620618576854" y="1040.5117928034879" as="sourcePoint"/>
                        <mxPoint x="636.1184210526317" y="992.5" as="targetPoint"/>
                    </mxGeometry>
                </mxCell>
                <mxCell id="169" value="" style="endArrow=none;html=1;" edge="1" parent="1" source="165" target="22">
                    <mxGeometry width="50" height="50" relative="1" as="geometry">
                        <mxPoint x="705.5746367678264" y="1031.5726210984913" as="sourcePoint"/>
                        <mxPoint x="667.1641791044776" y="992.5" as="targetPoint"/>
                    </mxGeometry>
                </mxCell>
                <mxCell id="170" value="" style="endArrow=none;html=1;" edge="1" parent="1" source="166" target="22">
                    <mxGeometry width="50" height="50" relative="1" as="geometry">
                        <mxPoint x="715.5746367678264" y="1041.5726210984913" as="sourcePoint"/>
                        <mxPoint x="677.1641791044776" y="1002.5" as="targetPoint"/>
                    </mxGeometry>
                </mxCell>
                <mxCell id="172" value="&lt;u&gt;Id_autorizados&lt;/u&gt;" style="ellipse;shape=doubleEllipse;whiteSpace=wrap;html=1;" vertex="1" parent="1">
                    <mxGeometry x="177.5" y="840" width="95" height="50" as="geometry"/>
                </mxCell>
                <mxCell id="173" value="" style="endArrow=none;html=1;" edge="1" parent="1" source="47" target="172">
                    <mxGeometry width="50" height="50" relative="1" as="geometry">
                        <mxPoint x="130" y="820" as="sourcePoint"/>
                        <mxPoint x="180" y="770" as="targetPoint"/>
                    </mxGeometry>
                </mxCell>
                <mxCell id="174" value="&lt;u&gt;Id_agendamento&lt;/u&gt;" style="ellipse;whiteSpace=wrap;html=1;rotation=0;" vertex="1" parent="1">
                    <mxGeometry x="300" y="180" width="100" height="40" as="geometry"/>
                </mxCell>
                <mxCell id="175" value="Data" style="ellipse;whiteSpace=wrap;html=1;rotation=0;" vertex="1" parent="1">
                    <mxGeometry x="410" y="155" width="80" height="40" as="geometry"/>
                </mxCell>
                <mxCell id="177" value="Hora" style="ellipse;whiteSpace=wrap;html=1;rotation=0;" vertex="1" parent="1">
                    <mxGeometry x="502.5" y="125" width="80" height="40" as="geometry"/>
                </mxCell>
                <mxCell id="178" value="Tipo" style="ellipse;whiteSpace=wrap;html=1;rotation=0;" vertex="1" parent="1">
                    <mxGeometry x="557.5" y="85" width="80" height="40" as="geometry"/>
                </mxCell>
                <mxCell id="179" value="Paciente" style="ellipse;whiteSpace=wrap;html=1;rotation=0;" vertex="1" parent="1">
                    <mxGeometry x="557.5" y="32.5" width="80" height="40" as="geometry"/>
                </mxCell>
                <mxCell id="180" value="Medico" style="ellipse;whiteSpace=wrap;html=1;rotation=0;" vertex="1" parent="1">
                    <mxGeometry x="230" y="125" width="80" height="40" as="geometry"/>
                </mxCell>
                <mxCell id="181" value="" style="endArrow=none;html=1;" edge="1" parent="1" source="180" target="24">
                    <mxGeometry width="50" height="50" relative="1" as="geometry">
                        <mxPoint x="310" y="170" as="sourcePoint"/>
                        <mxPoint x="360" y="120" as="targetPoint"/>
                    </mxGeometry>
                </mxCell>
                <mxCell id="182" value="" style="endArrow=none;html=1;" edge="1" parent="1" source="174" target="24">
                    <mxGeometry width="50" height="50" relative="1" as="geometry">
                        <mxPoint x="308.7032276651287" y="141.07049245662893" as="sourcePoint"/>
                        <mxPoint x="393.6666666666665" y="100" as="targetPoint"/>
                    </mxGeometry>
                </mxCell>
                <mxCell id="183" value="" style="endArrow=none;html=1;" edge="1" parent="1" source="175" target="24">
                    <mxGeometry width="50" height="50" relative="1" as="geometry">
                        <mxPoint x="318.7032276651287" y="151.07049245662893" as="sourcePoint"/>
                        <mxPoint x="403.6666666666665" y="110" as="targetPoint"/>
                    </mxGeometry>
                </mxCell>
                <mxCell id="184" value="" style="endArrow=none;html=1;" edge="1" parent="1" source="177" target="24">
                    <mxGeometry width="50" height="50" relative="1" as="geometry">
                        <mxPoint x="328.7032276651287" y="161.07049245662893" as="sourcePoint"/>
                        <mxPoint x="413.6666666666665" y="120" as="targetPoint"/>
                    </mxGeometry>
                </mxCell>
                <mxCell id="185" value="" style="endArrow=none;html=1;" edge="1" parent="1" source="178" target="24">
                    <mxGeometry width="50" height="50" relative="1" as="geometry">
                        <mxPoint x="338.7032276651287" y="171.07049245662893" as="sourcePoint"/>
                        <mxPoint x="423.6666666666665" y="130" as="targetPoint"/>
                    </mxGeometry>
                </mxCell>
                <mxCell id="186" value="" style="endArrow=none;html=1;" edge="1" parent="1" source="179" target="24">
                    <mxGeometry width="50" height="50" relative="1" as="geometry">
                        <mxPoint x="348.7032276651287" y="181.07049245662893" as="sourcePoint"/>
                        <mxPoint x="433.6666666666665" y="140" as="targetPoint"/>
                    </mxGeometry>
                </mxCell>
                <mxCell id="188" value="Data" style="ellipse;shape=doubleEllipse;whiteSpace=wrap;html=1;" vertex="1" parent="1">
                    <mxGeometry x="690" y="100" width="95" height="50" as="geometry"/>
                </mxCell>
                <mxCell id="189" value="Dia" style="ellipse;whiteSpace=wrap;html=1;rotation=0;" vertex="1" parent="1">
                    <mxGeometry x="640" y="155" width="80" height="40" as="geometry"/>
                </mxCell>
                <mxCell id="190" value="Hora" style="ellipse;whiteSpace=wrap;html=1;rotation=0;" vertex="1" parent="1">
                    <mxGeometry x="770" y="150" width="80" height="40" as="geometry"/>
                </mxCell>
                <mxCell id="191" value="" style="endArrow=none;html=1;" edge="1" parent="1" source="188" target="74">
                    <mxGeometry width="50" height="50" relative="1" as="geometry">
                        <mxPoint x="575.5257694780503" y="132.98283953537475" as="sourcePoint"/>
                        <mxPoint x="488.0769230769231" y="100" as="targetPoint"/>
                    </mxGeometry>
                </mxCell>
                <mxCell id="192" value="" style="endArrow=none;html=1;" edge="1" parent="1" source="190" target="188">
                    <mxGeometry width="50" height="50" relative="1" as="geometry">
                        <mxPoint x="755.4329729467349" y="130.35111977264455" as="sourcePoint"/>
                        <mxPoint x="770.2027027027027" y="85" as="targetPoint"/>
                    </mxGeometry>
                </mxCell>
                <mxCell id="193" value="" style="endArrow=none;html=1;" edge="1" parent="1" source="189" target="188">
                    <mxGeometry width="50" height="50" relative="1" as="geometry">
                        <mxPoint x="786.0968957280722" y="206.24697563321342" as="sourcePoint"/>
                        <mxPoint x="764.8825524208903" y="178.26587785565312" as="targetPoint"/>
                    </mxGeometry>
                </mxCell>
                <mxCell id="194" value="Tipo" style="ellipse;whiteSpace=wrap;html=1;rotation=0;" vertex="1" parent="1">
                    <mxGeometry x="505" y="405" width="80" height="40" as="geometry"/>
                </mxCell>
                <mxCell id="195" value="Data" style="ellipse;whiteSpace=wrap;html=1;rotation=0;" vertex="1" parent="1">
                    <mxGeometry x="470" y="272.5" width="80" height="40" as="geometry"/>
                </mxCell>
                <mxCell id="196" value="Resultado" style="ellipse;whiteSpace=wrap;html=1;rotation=0;" vertex="1" parent="1">
                    <mxGeometry x="610" y="230" width="80" height="40" as="geometry"/>
                </mxCell>
                <mxCell id="197" value="DescriÃ§Ã£o" style="ellipse;whiteSpace=wrap;html=1;rotation=0;" vertex="1" parent="1">
                    <mxGeometry x="705" y="375" width="80" height="40" as="geometry"/>
                </mxCell>
                <mxCell id="198" value="" style="endArrow=none;html=1;" edge="1" parent="1" source="194" target="23">
                    <mxGeometry width="50" height="50" relative="1" as="geometry">
                        <mxPoint x="570" y="410" as="sourcePoint"/>
                        <mxPoint x="620" y="360" as="targetPoint"/>
                    </mxGeometry>
                </mxCell>
                <mxCell id="199" value="" style="endArrow=none;html=1;" edge="1" parent="1" source="197" target="23">
                    <mxGeometry width="50" height="50" relative="1" as="geometry">
                        <mxPoint x="572.8885438200095" y="417.1114561799907" as="sourcePoint"/>
                        <mxPoint x="622.4999999999998" y="367.5" as="targetPoint"/>
                    </mxGeometry>
                </mxCell>
                <mxCell id="200" value="" style="endArrow=none;html=1;" edge="1" parent="1" source="195" target="23">
                    <mxGeometry width="50" height="50" relative="1" as="geometry">
                        <mxPoint x="582.8885438200095" y="427.1114561799907" as="sourcePoint"/>
                        <mxPoint x="632.4999999999998" y="377.5" as="targetPoint"/>
                    </mxGeometry>
                </mxCell>
                <mxCell id="201" value="" style="endArrow=none;html=1;" edge="1" parent="1" source="196" target="23">
                    <mxGeometry width="50" height="50" relative="1" as="geometry">
                        <mxPoint x="592.8885438200095" y="437.1114561799907" as="sourcePoint"/>
                        <mxPoint x="642.4999999999998" y="387.5" as="targetPoint"/>
                    </mxGeometry>
                </mxCell>
                <mxCell id="202" value="Data" style="ellipse;whiteSpace=wrap;html=1;rotation=0;" vertex="1" parent="1">
                    <mxGeometry x="1420" y="1025" width="80" height="40" as="geometry"/>
                </mxCell>
                <mxCell id="203" value="Valor" style="ellipse;whiteSpace=wrap;html=1;rotation=0;" vertex="1" parent="1">
                    <mxGeometry x="1320" y="850" width="80" height="40" as="geometry"/>
                </mxCell>
                <mxCell id="204" value="Metodo" style="ellipse;whiteSpace=wrap;html=1;rotation=0;" vertex="1" parent="1">
                    <mxGeometry x="1415" y="850" width="80" height="40" as="geometry"/>
                </mxCell>
                <mxCell id="205" value="Convenio" style="ellipse;whiteSpace=wrap;html=1;rotation=0;" vertex="1" parent="1">
                    <mxGeometry x="1300" y="1018.75" width="80" height="40" as="geometry"/>
                </mxCell>
                <mxCell id="206" value="" style="endArrow=none;html=1;" edge="1" parent="1" source="203" target="25">
                    <mxGeometry width="50" height="50" relative="1" as="geometry">
                        <mxPoint x="1230" y="930" as="sourcePoint"/>
                        <mxPoint x="1280" y="880" as="targetPoint"/>
                    </mxGeometry>
                </mxCell>
                <mxCell id="207" value="" style="endArrow=none;html=1;" edge="1" parent="1" source="204" target="25">
                    <mxGeometry width="50" height="50" relative="1" as="geometry">
                        <mxPoint x="1383.6176433441797" y="898.805316999106" as="sourcePoint"/>
                        <mxPoint x="1418.75" y="947.5" as="targetPoint"/>
                    </mxGeometry>
                </mxCell>
                <mxCell id="208" value="" style="endArrow=none;html=1;" edge="1" parent="1" source="205" target="25">
                    <mxGeometry width="50" height="50" relative="1" as="geometry">
                        <mxPoint x="1393.6176433441797" y="908.805316999106" as="sourcePoint"/>
                        <mxPoint x="1428.75" y="957.5" as="targetPoint"/>
                    </mxGeometry>
                </mxCell>
                <mxCell id="209" value="" style="endArrow=none;html=1;" edge="1" parent="1" source="202" target="25">
                    <mxGeometry width="50" height="50" relative="1" as="geometry">
                        <mxPoint x="1403.6176433441797" y="918.805316999106" as="sourcePoint"/>
                        <mxPoint x="1438.75" y="967.5" as="targetPoint"/>
                    </mxGeometry>
                </mxCell>
                <mxCell id="210" value="&lt;u&gt;Id_plano&lt;/u&gt;" style="ellipse;whiteSpace=wrap;html=1;rotation=0;" vertex="1" parent="1">
                    <mxGeometry x="930" y="810" width="80" height="40" as="geometry"/>
                </mxCell>
                <mxCell id="211" value="Nome" style="ellipse;whiteSpace=wrap;html=1;rotation=0;" vertex="1" parent="1">
                    <mxGeometry x="1120" y="870" width="80" height="40" as="geometry"/>
                </mxCell>
                <mxCell id="212" value="Num_cartÃ£o" style="ellipse;whiteSpace=wrap;html=1;rotation=0;" vertex="1" parent="1">
                    <mxGeometry x="870" y="998.75" width="80" height="40" as="geometry"/>
                </mxCell>
                <mxCell id="213" value="Validade" style="ellipse;whiteSpace=wrap;html=1;rotation=0;" vertex="1" parent="1">
                    <mxGeometry x="1070" y="1000" width="80" height="40" as="geometry"/>
                </mxCell>
                <mxCell id="214" value="Tipo" style="ellipse;whiteSpace=wrap;html=1;rotation=0;" vertex="1" parent="1">
                    <mxGeometry x="1032.5" y="820" width="80" height="40" as="geometry"/>
                </mxCell>
                <mxCell id="215" value="" style="endArrow=none;html=1;" edge="1" parent="1" source="26" target="210">
                    <mxGeometry width="50" height="50" relative="1" as="geometry">
                        <mxPoint x="860" y="920" as="sourcePoint"/>
                        <mxPoint x="910" y="870" as="targetPoint"/>
                    </mxGeometry>
                </mxCell>
                <mxCell id="216" value="" style="endArrow=none;html=1;" edge="1" parent="1" source="26" target="214">
                    <mxGeometry width="50" height="50" relative="1" as="geometry">
                        <mxPoint x="1040" y="960" as="sourcePoint"/>
                        <mxPoint x="988.9943802679759" y="859.4878239139484" as="targetPoint"/>
                    </mxGeometry>
                </mxCell>
                <mxCell id="217" value="" style="endArrow=none;html=1;" edge="1" parent="1" source="26" target="211">
                    <mxGeometry width="50" height="50" relative="1" as="geometry">
                        <mxPoint x="1040.7692307692305" y="960" as="sourcePoint"/>
                        <mxPoint x="998.9943802679759" y="869.4878239139484" as="targetPoint"/>
                    </mxGeometry>
                </mxCell>
                <mxCell id="218" value="" style="endArrow=none;html=1;" edge="1" parent="1" source="26" target="212">
                    <mxGeometry width="50" height="50" relative="1" as="geometry">
                        <mxPoint x="1050.7692307692305" y="970" as="sourcePoint"/>
                        <mxPoint x="1008.9943802679759" y="879.4878239139484" as="targetPoint"/>
                    </mxGeometry>
                </mxCell>
                <mxCell id="219" value="" style="endArrow=none;html=1;" edge="1" parent="1" source="213" target="26">
                    <mxGeometry width="50" height="50" relative="1" as="geometry">
                        <mxPoint x="1060.7692307692305" y="980" as="sourcePoint"/>
                        <mxPoint x="1018.9943802679759" y="889.4878239139484" as="targetPoint"/>
                    </mxGeometry>
                </mxCell>
            </root>
        </mxGraphModel>
    </diagram>
</mxfile>